# xmcd CD database file
#
# Track frame offsets:
#	150
#	17260
#	34319
#	53067
#	70821
#	86989
#	104154
#	123125
#	142074
#	161064
#	183781
#	205486
#	221401
#	239345
#	258035
#	276726
#
# Disc length: 3970 seconds
#
# Revision: 1
# Processed by: cddbd v1.5.2PL0 Copyright (c) Steve Scherf et al.
# Submitted via: CDex 1.70beta2
#
DISCID=ef0f8010
DTITLE=Jessica Andrews - Now
DYEAR=2003
DGENRE=Country
TTITLE0=There's More To Me Than You
TTITLE1=When Gentry Plays Guitar
TTITLE2=I Wish For You
TTITLE3=To Love You Once
TTITLE4=I Bring It To You
TTITLE5=Never Be Forgotten
TTITLE6=They Are The Roses
TTITLE7=Sunshine and Love
TTITLE8=You're The Man (That Brings The Woman Out Of Me)
TTITLE9=Cowboy Guarantee
TTITLE10=Now
TTITLE11=Second Sunday
TTITLE12=Windows On A Train
TTITLE13=God Don't Give Up On Us
TTITLE14=Good Time
TTITLE15=There's More To Me Than You
EXTD=YEAR: 2003
EXTT0=
EXTT1=
EXTT2=
EXTT3=
EXTT4=
EXTT5=
EXTT6=
EXTT7=
EXTT8=
EXTT9=
EXTT10=
EXTT11=
EXTT12=
EXTT13=
EXTT14=
EXTT15=
PLAYORDER=
